<svg xmlns="http://www.w3.org/2000/svg" viewBox="0 0 512 512" width="48" height="48" fill="#2196F3"><path d="M407.072 374.202C433.415 340.547 448 298.85 448 256c0-88.829-61.909-166.438-147.85-186.711-20.319-40.901-34.781-63.781-35.191-64.414-2-3.083-5.563-4.344-9.104-4.875a10.698 10.698 0 00-8.969 5.125c-13.103 21.526-25.092 43.073-36.168 64.484C125.435 90.292 64 167.771 64 256c0 42.181 14.216 83.41 39.897 116.829-15.973 76.823-18.507 126.935-18.553 128.046a10.661 10.661 0 006.979 10.469c1.198.448 2.448.656 3.677.656 3.219 0 6.354-1.469 8.417-4.115 21.306-27.393 44.047-55.009 66.13-80.385C197.069 440.721 226.337 448 256 448c39.573 0 78.374-12.555 110.635-35.345 13.883 22.865 27.652 47.777 39.823 72.116 2.344 4.667 7.729 6.938 12.75 5.406a10.67 10.67 0 007.344-11.74c-5.402-36.464-12.039-71.236-19.48-104.235zM85.333 256c0-72 46.03-135.906 112.21-160.15-44.129 91.18-71.042 178.465-87.384 248.51-16.214-26.551-24.826-56.653-24.826-88.36zM256 426.667c-24.457 0-48.598-5.624-70.803-15.78C231.766 358.846 273.065 320 288 320c13.568 0 39.871 31.813 67.31 74.539-29.093 20.973-63.186 32.128-99.31 32.128zm32-128c-37.49 0-131.656 110.521-178.083 167.979 8.781-73.99 39.99-253.896 146.083-435.177 25.458 44.344 98.813 184.271 138.354 385.635C363.5 363.49 319.656 298.667 288 298.667zm112.393 47.975c-26.326-106.723-60.345-192.547-87.833-251.51C379.802 118.813 426.667 183.145 426.667 256c0 32.178-9.306 63.599-26.274 90.642z"/></svg>
